<?xml version="1.0" encoding="UTF-8" standalone="no"?>
<!DOCTYPE svg PUBLIC "-//W3C//DTD SVG 1.1//EN" "http://www.w3.org/Graphics/SVG/1.1/DTD/svg11.dtd">
<!-- Generiert durch Microsoft Visio, SVG Export logo_inv.svg logo_inv -->
<svg xmlns="http://www.w3.org/2000/svg"
	 width="2.72771in" height="2.82548in" viewBox="0 0 196.395 203.435" xml:space="preserve"
	 color-interpolation-filters="sRGB"
	 class="st4">
	<style type="text/css">
	<![CDATA[
		.st1 {fill:#ff9900;stroke:none;stroke-linecap:butt;stroke-width:7.2124}
		.st2 {fill:#ffffff}
		.st3 {stroke:none;stroke-linecap:butt;stroke-width:7.2124}
		.st4 {fill:none;fill-rule:evenodd;font-size:12px;overflow:visible;stroke-linecap:square;stroke-miterlimit:3}
	]]>
	</style>

	<g>
		<title>logo_inv</title>
		<g id="shape3-1" transform="translate(172.553,340.272) rotate(180)">
			<title>Tabelle.3</title>
			<path d="M129.41 173.89 C67.32 203.43 28.79 178.71 4.12 163.7 C2.59 162.75 0 163.92 2.25 166.5 C10.47 176.47 37.4 200.48
						 72.55 200.48 C107.73 200.48 128.65 181.29 131.27 177.94 C133.87 174.62 132.03 172.79 129.41 173.89 L129.41
						 173.89 ZM146.84 164.26 C145.18 162.09 136.71 161.68 131.37 162.34 C126.03 162.97 118.02 166.23 118.72 168.19
						 C119.07 168.93 119.8 168.6 123.47 168.27 C127.15 167.9 137.45 166.6 139.6 169.41 C141.76 172.23 136.31 185.7
						 135.32 187.87 C134.36 190.04 135.69 190.6 137.49 189.15 C139.27 187.71 142.49 183.96 144.65 178.67 C146.8
						 173.34 148.11 165.91 146.84 164.26 L146.84 164.26 Z" class="st1"/>
		</g>
		<g id="shape4-3" transform="translate(53.4623,-64.4992)">
			<title>Tabelle.4</title>
			<path d="M58.64 153.25 C58.64 161 58.84 167.47 54.92 174.35 C51.75 179.95 46.74 183.39 41.15 183.39 C33.5 183.39 29.05
						 177.57 29.05 168.98 C29.05 152.02 44.25 148.94 58.64 148.94 L58.64 153.25 ZM78.71 201.76 C77.39 202.93 75.49
						 203.02 74.01 202.23 C67.4 196.75 66.22 194.2 62.59 188.96 C51.67 200.1 43.94 203.43 29.78 203.43 C13.04
						 203.43 0 193.11 0 172.42 C0 156.27 8.76 145.27 21.22 139.9 C32.02 135.14 47.11 134.3 58.64 132.98 L58.64
						 130.41 C58.64 125.68 59 120.08 56.23 115.99 C53.8 112.33 49.15 110.82 45.06 110.82 C37.48 110.82 30.7 114.71
						 29.05 122.77 C28.72 124.56 27.4 126.32 25.61 126.41 L6.3 124.34 C4.67 123.97 2.88 122.66 3.33 120.16 C7.78
						 96.77 28.91 89.71 47.83 89.71 C57.52 89.71 70.17 92.29 77.81 99.62 C87.5 108.66 86.57 120.72 86.57 133.85
						 L86.57 164.86 C86.57 174.19 90.44 178.27 94.07 183.31 C95.36 185.1 95.64 187.26 94.02 188.6 C89.96 191.99
						 82.74 198.28 78.76 201.81 L78.71 201.76 L78.71 201.76 Z" class="st2"/>
			<path d="M58.64 153.25 C58.64 161 58.84 167.47 54.92 174.35 C51.75 179.95 46.74 183.39 41.15 183.39 C33.5 183.39 29.05
						 177.57 29.05 168.98 C29.05 152.02 44.25 148.94 58.64 148.94 L58.64 153.25M78.71 201.76 C77.39 202.93 75.49
						 203.02 74.01 202.23 C67.4 196.75 66.22 194.2 62.59 188.96 C51.67 200.1 43.94 203.43 29.78 203.43 C13.04
						 203.43 0 193.11 0 172.42 C0 156.27 8.76 145.27 21.22 139.9 C32.02 135.14 47.11 134.3 58.64 132.98 L58.64
						 130.41 C58.64 125.68 59 120.08 56.23 115.99 C53.8 112.33 49.15 110.82 45.06 110.82 C37.48 110.82 30.7 114.71
						 29.05 122.77 C28.72 124.56 27.4 126.32 25.61 126.41 L6.3 124.34 C4.67 123.97 2.88 122.66 3.33 120.16 C7.78
						 96.77 28.91 89.71 47.83 89.71 C57.52 89.71 70.17 92.29 77.81 99.62 C87.5 108.66 86.57 120.72 86.57 133.85
						 L86.57 164.86 C86.57 174.19 90.44 178.27 94.07 183.31 C95.36 185.1 95.64 187.26 94.02 188.6 C89.96 191.99
						 82.74 198.28 78.76 201.81 L78.71 201.76" class="st3"/>
		</g>
	</g>
</svg>
