<?xml version="1.0" encoding="UTF-8" standalone="no"?>
<!DOCTYPE svg PUBLIC "-//W3C//DTD SVG 1.1//EN" "http://www.w3.org/Graphics/SVG/1.1/DTD/svg11.dtd">
<!-- Generiert durch Microsoft Visio, SVG Export logo_long.svg logo_long -->
<svg xmlns="http://www.w3.org/2000/svg"
	 width="9.46068in" height="2.70391in" viewBox="0 0 681.169 194.681" xml:space="preserve"
	 color-interpolation-filters="sRGB"
	 class="st5">
	<style type="text/css">
	<![CDATA[
		.st1 {fill:#000000;stroke:none;stroke-linecap:butt;stroke-width:0.75}
		.st2 {fill:#ff9900;stroke:none;stroke-linecap:butt;stroke-width:0.75}
		.st3 {fill:#000000;stroke:none;stroke-linecap:butt;stroke-width:0.749999}
		.st4 {fill:#000000;stroke:none;stroke-linecap:butt;stroke-width:0.198437}
		.st5 {fill:none;fill-rule:evenodd;font-size:12px;overflow:visible;stroke-linecap:square;stroke-miterlimit:3}
	]]>
	</style>

	<g>
		<title>logo_long</title>
		<g id="shape4-1" transform="translate(277.235,-69.6591)">
			<title>path12</title>
			<path d="M2.62 131.86 L2.62 121.6 C2.62 120.04 3.79 119 5.21 119 L51.16 119 C52.64 119 53.82 120.06 53.82 121.6 L53.82
						 130.38 C53.8 131.86 52.56 133.79 50.36 136.83 L26.54 170.83 C35.39 170.61 44.73 171.93 52.75 176.45 C54.56
						 177.48 55.06 178.97 55.19 180.45 L55.19 191.4 C55.19 192.89 53.54 194.64 51.81 193.74 C37.67 186.32 18.9
						 185.52 3.26 193.82 C1.67 194.68 0 192.95 0 191.46 L0 181.06 C0 179.38 0.02 176.53 1.69 174 L29.28 134.43
						 L5.27 134.43 C3.79 134.43 2.62 133.39 2.62 131.86 Z" class="st1"/>
		</g>
		<g id="shape5-3" transform="translate(95.7489,-68.44)">
			<title>path14</title>
			<path d="M16.48 194.68 L2.5 194.68 C1.16 194.58 0.1 193.58 0 192.3 L0 120.55 C0 119.12 1.2 117.98 2.69 117.98 L15.73
						 117.98 C17.09 118.04 18.17 119.08 18.27 120.38 L18.27 129.76 L18.52 129.76 C21.92 120.69 28.31 116.46 36.93
						 116.46 C45.68 116.46 51.14 120.69 55.08 129.76 C58.46 120.69 66.15 116.46 74.38 116.46 C80.24 116.46 86.65
						 118.88 90.57 124.31 C94.99 130.35 94.09 139.11 94.09 146.8 L94.07 192.09 C94.07 193.52 92.87 194.68 91.37
						 194.68 L77.41 194.68 C76.02 194.58 74.89 193.46 74.89 192.09 L74.89 154.06 C74.89 151.03 75.17 143.48 74.5
						 140.61 C73.46 135.79 70.33 134.43 66.28 134.43 C62.9 134.43 59.36 136.7 57.93 140.31 C56.49 143.93 56.63
						 149.99 56.63 154.06 L56.63 192.09 C56.63 193.52 55.43 194.68 53.93 194.68 L39.97 194.68 C38.56 194.58 37.46
						 193.46 37.46 192.09 L37.44 154.06 C37.44 146.06 38.76 134.28 28.83 134.28 C18.78 134.28 19.17 145.76 19.17
						 154.06 L19.17 192.09 C19.17 193.52 17.97 194.68 16.48 194.68 Z" class="st1"/>
		</g>
		<g id="shape6-5" transform="translate(531.112,-66.4094)">
			<title>path16</title>
			<path d="M31.46 114.97 C52.2 114.97 63.43 132.78 63.43 155.43 C63.43 177.32 51.02 194.68 31.46 194.68 C11.09 194.68 0
						 176.87 0 154.67 C0 132.33 11.23 114.97 31.46 114.97 ZM31.58 129.62 C21.27 129.62 20.63 143.66 20.63 152.41
						 C20.63 161.18 20.49 179.89 31.46 179.89 C42.29 179.89 42.81 164.79 42.81 155.59 C42.81 149.54 42.55 142.3
						 40.72 136.56 C39.15 131.56 36.02 129.62 31.58 129.62 Z" class="st1"/>
		</g>
		<g id="shape7-7" transform="translate(604.985,-67.9038)">
			<title>path18</title>
			<path d="M16.46 194.68 L2.54 194.68 C1.14 194.58 0.02 193.46 0.02 192.09 L0 120.32 C0.12 119 1.28 117.98 2.69 117.98
						 L15.65 117.98 C16.87 118.04 17.87 118.86 18.15 119.98 L18.15 130.95 L18.4 130.95 C22.32 121.14 27.8 116.46
						 37.46 116.46 C43.73 116.46 49.84 118.72 53.78 124.92 C57.43 130.66 57.43 140.31 57.43 147.25 L57.43 192.42
						 C57.28 193.68 56.12 194.68 54.74 194.68 L40.72 194.68 C39.44 194.58 38.38 193.64 38.24 192.42 L38.24 153.45
						 C38.24 145.6 39.15 134.12 29.49 134.12 C26.09 134.12 22.97 136.4 21.41 139.86 C19.45 144.25 19.19 148.61
						 19.19 153.45 L19.19 192.09 C19.17 193.52 17.95 194.68 16.46 194.68 Z" class="st1"/>
		</g>
		<g id="shape8-9" transform="translate(202.025,-67.4569)">
			<title>path30</title>
			<path d="M41.19 159.43 L41.19 156.4 C31.09 156.4 20.41 158.56 20.41 170.48 C20.41 176.51 23.54 180.6 28.9 180.6 C32.84
						 180.6 36.36 178.18 38.58 174.25 C41.33 169.41 41.19 164.87 41.19 159.43 ZM55.29 193.5 C54.37 194.33 53.03
						 194.39 51.99 193.84 C47.35 189.98 46.52 188.19 43.97 184.52 C36.3 192.34 30.87 194.68 20.92 194.68 C9.16
						 194.68 0 187.43 0 172.9 C0 161.55 6.15 153.82 14.9 150.05 C22.49 146.7 33.09 146.11 41.19 145.19 L41.19
						 143.38 C41.19 140.06 41.45 136.13 39.5 133.26 C37.79 130.68 34.53 129.62 31.66 129.62 C26.33 129.62 21.57
						 132.35 20.41 138.01 C20.17 139.27 19.25 140.51 17.99 140.57 L4.42 139.11 C3.28 138.86 2.03 137.93 2.34 136.18
						 C5.47 119.75 20.31 114.79 33.6 114.79 C40.41 114.79 49.29 116.6 54.66 121.75 C61.47 128.1 60.82 136.58 60.82
						 145.8 L60.82 167.59 C60.82 174.13 63.53 177 66.09 180.54 C66.99 181.8 67.19 183.32 66.05 184.26 C63.2 186.64
						 58.12 191.06 55.33 193.54 L55.29 193.5 Z" class="st1"/>
		</g>
		<g id="shape9-11" transform="translate(18.75,-67.4569)">
			<title>Tabelle.9</title>
			<path d="M41.19 159.43 L41.19 156.4 C31.09 156.4 20.41 158.56 20.41 170.48 C20.41 176.51 23.54 180.6 28.9 180.6 C32.84
						 180.6 36.36 178.18 38.58 174.25 C41.33 169.41 41.19 164.87 41.19 159.43 ZM55.29 193.5 C54.37 194.33 53.03
						 194.39 51.99 193.84 C47.35 189.98 46.52 188.19 43.97 184.52 C36.3 192.34 30.87 194.68 20.92 194.68 C9.16
						 194.68 0 187.43 0 172.9 C0 161.55 6.15 153.82 14.9 150.05 C22.49 146.7 33.09 146.11 41.19 145.19 L41.19
						 143.38 C41.19 140.06 41.45 136.13 39.5 133.26 C37.79 130.68 34.53 129.62 31.66 129.62 C26.33 129.62 21.57
						 132.35 20.41 138.01 C20.17 139.27 19.25 140.51 17.99 140.57 L4.42 139.11 C3.28 138.86 2.03 137.93 2.34 136.18
						 C5.47 119.75 20.31 114.79 33.6 114.79 C40.41 114.79 49.29 116.6 54.66 121.75 C61.47 128.1 60.82 136.58 60.82
						 145.8 L60.82 167.59 C60.82 174.13 63.53 177 66.09 180.54 C66.99 181.8 67.19 183.32 66.05 184.26 C63.2 186.64
						 58.12 191.06 55.33 193.54 L55.29 193.5 Z" class="st1"/>
		</g>
		<g id="shape2-13" transform="translate(323.973,320.863) rotate(180)">
			<title>path8</title>
			<path d="M218.08 170.13 C191.83 186.14 153.78 194.68 121.02 194.68 C75.09 194.68 33.74 180.63 2.46 157.25 C0 155.41 2.2
						 152.91 5.15 154.34 C38.91 170.59 80.66 180.37 123.78 180.37 C152.86 180.37 184.85 175.39 214.26 165.06 C218.71
						 163.5 222.42 167.47 218.08 170.13 Z" class="st2"/>
		</g>
		<g id="shape3-15" transform="translate(129.756,322.953) rotate(180)">
			<title>path10</title>
			<path d="M33.6 161.39 C30.26 157.11 11.42 159.37 2.97 160.37 C0.39 160.68 0 158.44 2.32 156.83 C17.32 146.27 41.94 149.32
						 44.81 152.86 C47.68 156.42 44.06 181.09 29.97 192.87 C27.8 194.68 25.74 193.72 26.7 191.32 C29.87 183.41
						 36.97 165.7 33.6 161.39 Z" class="st2"/>
		</g>
		<g id="shape1002-17" transform="translate(389.212,-66.9457)">
			<title>path18.1002</title>
			<path d="M16.46 194.68 L2.54 194.68 C1.14 194.58 0.02 193.46 0.02 192.09 L0 120.32 C0.12 119 1.28 117.98 2.69 117.98
						 L15.65 117.98 C16.87 118.04 17.87 118.86 18.15 119.98 L18.15 130.95 L18.4 130.95 C22.32 121.14 27.8 116.46
						 37.46 116.46 C43.73 116.46 49.84 118.72 53.78 124.92 C57.43 130.66 57.43 140.31 57.43 147.25 L57.43 192.42
						 C57.28 193.68 56.12 194.68 54.74 194.68 L40.72 194.68 C39.44 194.58 38.38 193.64 38.24 192.42 L38.24 153.45
						 C38.24 145.6 39.15 134.12 29.49 134.12 C26.09 134.12 22.97 136.4 21.41 139.86 C19.45 144.25 19.19 148.61
						 19.19 153.45 L19.19 192.09 C19.17 193.52 17.95 194.68 16.46 194.68 Z" class="st1"/>
		</g>
		<g id="group1004-19" transform="translate(340.45,-67.3312)">
			<title>Tabelle.1004</title>
			<g id="shape1005-20">
				<title>path10316</title>
				<path d="M32.7 122.68 C32.7 121.03 32.4 120.58 30.6 120.58 L2.1 120.58 C0.3 120.58 0 121.03 0 122.68 L0 132.43 C0
							 134.08 0.3 134.53 2.1 134.53 L13.65 134.53 L13.65 192.58 C13.65 194.23 13.95 194.68 15.75 194.68 L30.6
							 194.68 C32.4 194.68 32.7 194.23 32.7 192.58 L32.7 122.68 ZM35.4 98.38 C35.4 91.48 29.85 86.08 23.1 86.08
							 C16.2 86.08 10.65 91.48 10.65 98.38 C10.65 105.28 16.2 110.83 23.1 110.83 C29.85 110.83 35.4 105.28
							 35.4 98.38 Z" class="st3"/>
			</g>
		</g>
		<g id="group1006-22" transform="translate(458.079,-36.7136)">
			<title>Tabelle.1006</title>
			<g id="shape1007-23">
				<title>path16242</title>
				<path d="M61.8 111.43 C61.8 99.58 66 94.18 66 92.23 C66 91.63 65.25 91.18 64.65 90.88 L52.95 86.53 C52.5 86.38 51.9
							 86.23 51.45 86.23 C49.35 86.23 46.65 91.93 46.2 93.28 C43.35 90.88 39 86.23 28.35 86.23 C10.5 86.23
							 0 101.23 0 125.38 C0 147.88 8.85 161.98 25.65 161.98 C35.85 161.98 41.55 157.78 43.8 156.28 C43.8 157.33
							 44.25 160.93 44.25 166.18 C44.25 174.58 42.45 178.93 31.95 178.93 C18.6 178.93 9.45 173.08 7.65 173.08
							 C6.9 173.08 6.3 173.53 6 174.58 L3.15 183.73 C2.7 185.08 2.55 185.68 2.55 186.73 C2.55 189.88 21.9 194.68
							 33.6 194.68 C54.45 194.68 62.55 183.88 62.55 167.53 C62.55 159.13 61.8 143.68 61.8 133.78 L61.8 111.43
							 ZM43.8 141.88 C42.3 143.23 38.7 146.98 31.05 146.98 C22.05 146.98 19.05 138.43 19.05 124.78 C19.05 110.38
							 22.95 101.98 31.95 101.98 C38.7 101.98 41.85 104.98 43.8 106.48 L43.8 141.88 Z" class="st4"/>
			</g>
		</g>
	</g>
</svg>
