<?xml version="1.0" encoding="UTF-8" standalone="no"?>
<!DOCTYPE svg PUBLIC "-//W3C//DTD SVG 1.1//EN" "http://www.w3.org/Graphics/SVG/1.1/DTD/svg11.dtd">
<!-- Generiert durch Microsoft Visio, SVG Export user_grey.svg Page-1 -->
<svg xmlns="http://www.w3.org/2000/svg"
     width="8.47953in" height="8.47982in" viewBox="0 0 610.526 610.547" xml:space="preserve"
     color-interpolation-filters="sRGB"
     class="st3">
	<style type="text/css">
	<![CDATA[
		.st1 {fill:#e7eced;stroke:none;stroke-linecap:butt;stroke-width:11.5472}
		.st2 {fill:#556080;stroke:none;stroke-linecap:butt;stroke-width:11.5472}
		.st3 {fill:none;fill-rule:evenodd;font-size:12px;overflow:visible;stroke-linecap:square;stroke-miterlimit:3}
	]]>
	</style>

    <g>
		<title>Zeichenblatt-1</title>
        <g id="group1-1" transform="translate(28.1108,-29.5472)">
			<title>Tabelle.1</title>
            <g id="shape2-2" transform="translate(99.6258,0)">
				<title>Tabelle.2</title>
                <path d="M95.47 491.43 L13.2 536.31 C8.38 538.94 4.04 542.18 0 545.7 C47.97 586.15 109.88 610.55 177.54 610.55 C244.69
							 610.55 306.21 586.51 354.04 546.62 C349.63 542.9 344.85 539.54 339.54 536.9 L251.44 492.86 C240.06 487.17
							 232.87 475.53 232.87 462.81 L232.87 428.24 C235.35 425.43 238.18 421.8 241.2 417.53 C253.21 400.57 262.29
							 381.91 268.59 362.34 C279.89 358.86 288.21 348.42 288.21 336.02 L288.21 299.12 C288.21 291.01 284.6
							 283.75 278.99 278.68 L278.99 225.34 C278.99 225.34 289.95 142.34 177.55 142.34 C65.14 142.34 76.1 225.34
							 76.1 225.34 L76.1 278.68 C70.48 283.75 66.88 291.01 66.88 299.12 L66.88 336.02 C66.88 345.74 71.99 354.29
							 79.64 359.23 C88.86 399.36 113 428.24 113 428.24 L113 461.96 C112.99 474.23 106.26 485.54 95.47 491.43
							 Z" class="st1"/>
			</g>
            <g id="shape3-4" transform="translate(0,-63.9582)">
				<title>Tabelle.3</title>
                <path d="M281.88 123.09 C129.62 120.49 4.08 241.81 1.48 394.07 C0 480.39 38.48 557.98 99.74 609.58 C103.75 606.08
							 108.04 602.88 112.82 600.28 L195.09 555.4 C205.88 549.51 212.6 538.2 212.6 525.9 L212.6 492.19 C212.6
							 492.19 188.45 463.31 179.24 423.18 C171.61 418.24 166.49 409.69 166.49 399.96 L166.49 363.07 C166.49
							 354.95 170.1 347.7 175.71 342.62 L175.71 289.29 C175.71 289.29 164.75 206.29 277.15 206.29 C389.55 206.29
							 378.6 289.29 378.6 289.29 L378.6 342.62 C384.22 347.7 387.82 354.95 387.82 363.07 L387.82 399.96 C387.82
							 412.37 379.49 422.8 368.19 426.29 C361.9 445.86 352.82 464.52 340.81 481.48 C337.78 485.75 334.95 489.37
							 332.47 492.19 L332.47 526.76 C332.47 539.48 339.66 551.13 351.05 556.81 L439.14 600.85 C444.43 603.49
							 449.21 606.83 453.61 610.55 C513.02 561 551.4 486.92 552.83 403.49 C555.45 251.24 434.14 125.69 281.88
							 123.09 Z" class="st2"/>
			</g>
		</g>
	</g>
</svg>
